# xmcd
#
# Track frame offsets: 
#        187
#        13685
#        27247
#        41115
#
# Disc length: 727 seconds
#
# Revision: 0
# Processed by: cddbd v1.5.2PL0 Copyright (c) Steve Scherf et al.
# Submitted via: ExactAudioCopyFreeDBPlugin 1.0
#
DISCID=2a02d504
DTITLE=Etta James - Vintage Gold
DYEAR=1900
DGENRE=R&B
TTITLE0=All I Could Do Was Cry
TTITLE1=At Last
TTITLE2=My Dearest Darling
TTITLE3=Trust In Me
EXTD=
EXTT0=
EXTT1=
EXTT2=
EXTT3=
PLAYORDER=
